# xmcd
#
# Track frame offsets:
#	150
#	14717
#	28350
#	55161
#	66516
#	79459
#	94081
#	109845
#	125745
#	148909
#	166766
#	180799
#	191802
#	203590
#	215488
#	246667
#	266501
#
# Disc length: 3736 seconds
# Revision: 1
# Processed by: cddbd v1.5.2PL0 Copyright (c) Steve Scherf et al.
# Submitted via: dBpowerAMP V12.0
#
DISCID=090e9611
DTITLE=Various Artist - The Banjo Special
DYEAR=2003
DGENRE=Bluegrass
TTITLE0=Arnie Naiman - On My Way to Somewhere - 45 Km to Town
TTITLE1=Brian Taheny - The Rambling Boys of Killarney - The Glorious Return to Milltown - Cahill's Reel
TTITLE2=Chris Quinn - Old Dangerfield
TTITLE3=Chris Coole - Little Birdie
TTITLE4=Arnie Naiman - Waltonian Sunset
TTITLE5=Brian Taheny - Ace and Deuce of Piping - The Japanese Hornpipe
TTITLE6=Chris Quinn - Cold Tea
TTITLE7=Arnnie Naiman - Santa Ana's Retreat - Kathy's Surprise - Haning's Farewell
TTITLE8=Brian Taheny - Pull the Knife and Stick it In - The Gold Ring - An Phis Flucht - The Mist Covered Mountain
TTITLE9=Chris Coole - Year of Jubilo - Turkey Sag
TTITLE10=Arnie Naiman - Heartbeat
TTITLE11=Chris Quinn - Lonesome Road Blues
TTITLE12=Chris Coole - Cherokee Shuffle
TTITLE13=Chris Quinn and Chris Coole - Steam Powered Aereo Plane
TTITLE14=Brian Taheny - Sunrise - Sunset - The Youngest Daughter - Sean sa Cheo - The Start of Munster - The Guns of the Magnificent Seven
TTITLE15=Chris Coole - Rose in the Mountain - Snake Chapman's Tune - Indian Ate the Woodchuck
TTITLE16=Chris Coole, Chris Quinn and Arnie Naiman - Banjo Shmanjo
EXTD=
EXTT0=
EXTT1=
EXTT2=
EXTT3=
EXTT4=
EXTT5=
EXTT6=
EXTT7=
EXTT8=
EXTT9=
EXTT10=
EXTT11=
EXTT12=
EXTT13=
EXTT14=
EXTT15=
EXTT16=
PLAYORDER=
